<?xml version="1.0" encoding="utf-8"?>
<!-- Generator: Adobe Illustrator 16.0.0, SVG Export Plug-In . SVG Version: 6.00 Build 0)  -->
<!DOCTYPE svg PUBLIC "-//W3C//DTD SVG 1.1//EN" "http://www.w3.org/Graphics/SVG/1.1/DTD/svg11.dtd">
<svg version="1.1" id="Calque_1" xmlns="http://www.w3.org/2000/svg" xmlns:xlink="http://www.w3.org/1999/xlink" x="0px" y="0px"
	 width="200px" height="200px" viewBox="0 0 200 200" enable-background="new 0 0 200 200" xml:space="preserve">
<g>
	<path fill="#38ACB4" d="M177.146,70.793h-41.711v-33.82c0-8.79-7.225-16.013-16.014-16.013h-97.41C13.224,20.961,6,28.184,6,36.974
		v58.621c0,8.789,7.224,16.011,16.012,16.011h9.478l11.942,16.014c0.668,1.127,2.024,1.586,3.382,1.586
		c1.356,0,2.484-0.668,3.381-1.586l11.942-16.014h1.795v33.82c0,8.791,7.223,16.014,16.012,16.014h57.265l11.941,16.014
		c0.666,1.125,2.025,1.586,3.383,1.586c1.355,0,2.484-0.67,3.381-1.586l11.941-16.014h9.479c8.789,0,16.012-7.223,16.012-16.014
		v-58.62C193.367,77.995,186.164,70.793,177.146,70.793z M59.904,103.256c-1.357,0-2.485,0.668-3.383,1.586l-9.916,13.068
		l-9.917-13.068c-0.667-1.125-2.025-1.586-3.381-1.586H21.574c-4.279,0-7.662-3.381-7.662-7.662V36.974
		c0-4.281,3.382-7.662,7.662-7.662h97.409c4.281,0,7.662,3.381,7.662,7.662v38.099v20.521c0,4.28-3.381,7.662-7.662,7.662H68.004
		H59.904L59.904,103.256z M185.037,145.426c0,4.281-3.381,7.664-7.662,7.664h-11.732c-1.355,0-2.482,0.668-3.381,1.586
		l-9.918,13.068l-9.914-13.068c-0.67-1.127-2.025-1.586-3.385-1.586H79.966c-4.279,0-7.663-3.383-7.663-7.664v-33.82h47.119
		c3.152,0,6.096-0.898,8.559-2.484h31.566c2.256,0,4.049-1.797,4.049-4.049c0-2.256-1.793-4.051-4.049-4.051h-24.801
		c0.668-1.585,0.896-3.381,0.896-5.406V79.373h41.713c4.277,0,7.66,3.383,7.66,7.662v58.391H185.037z M163.389,128.287
		c0,2.254-1.795,4.051-4.051,4.051H98.004c-2.256,0-4.051-1.797-4.051-4.051s1.795-4.051,4.051-4.051h61.333
		C161.572,124.215,163.389,126.033,163.389,128.287z M100.926,82.505H39.82c-2.254,0-4.05-1.796-4.05-4.05
		c0-2.255,1.796-4.05,4.05-4.05h61.106c2.253,0,4.05,1.795,4.05,4.05C105.207,80.708,103.18,82.505,100.926,82.505z M35.77,55.011
		c0-2.256,1.796-4.05,4.05-4.05h36.742c2.255,0,4.05,1.794,4.05,4.05c0,2.253-1.795,4.05-4.05,4.05H39.82
		C37.566,59.06,35.77,57.265,35.77,55.011z"/>
</g>
</svg>
