<?xml version="1.0" encoding="utf-8"?>
<!-- Generator: Adobe Illustrator 16.0.0, SVG Export Plug-In . SVG Version: 6.00 Build 0)  -->
<!DOCTYPE svg PUBLIC "-//W3C//DTD SVG 1.1//EN" "http://www.w3.org/Graphics/SVG/1.1/DTD/svg11.dtd">
<svg version="1.1" id="Calque_1" xmlns="http://www.w3.org/2000/svg" xmlns:xlink="http://www.w3.org/1999/xlink" x="0px" y="0px"
	 width="200px" height="200px" viewBox="0 0 200 200" enable-background="new 0 0 200 200" xml:space="preserve">
<g>
	<path fill="none" stroke="#F59229" stroke-width="2" d="M151.522,80.306c1.481-0.384,3.036-0.589,4.637-0.589
		c1.602,0,3.153,0.205,4.637,0.589V20h-42.652v31.305h33.379V80.306z"/>
	<path fill="none" stroke="#F59229" stroke-width="2" d="M73.779,90.666c3.638-4.603,5.813-10.408,5.813-16.715
		c0-14.882-12.109-26.99-26.992-26.99c-14.88,0-26.99,12.107-26.99,26.99c0,6.308,2.174,12.113,5.812,16.715l21.178,26.625
		L73.779,90.666z M46.419,73.95c0-3.409,2.773-6.184,6.182-6.184c3.411,0,6.184,2.775,6.184,6.184s-2.773,6.184-6.184,6.184
		C49.192,80.134,46.419,77.359,46.419,73.95z"/>
	<path fill="none" stroke="#F59229" stroke-width="2" d="M52.601,142.123c-5.114,0-9.275,4.162-9.275,9.277
		c0,5.113,4.161,9.273,9.275,9.273s9.277-4.16,9.277-9.273C61.878,146.285,57.715,142.123,52.601,142.123z"/>
	<path fill="none" stroke="#F59229" stroke-width="2" d="M152.15,120.199h-51.516c-4.767,0-8.644-3.879-8.644-8.65
		c0-4.765,3.877-8.644,8.644-8.644h37.559c-0.382-1.481-0.586-3.039-0.586-4.637c0-1.602,0.204-3.156,0.586-4.637h-37.559
		c-9.882,0-17.919,8.041-17.919,17.917c0,9.884,8.037,17.924,17.919,17.924h51.516c4.769,0,8.646,3.877,8.646,8.648
		c0,4.76-3.877,8.639-8.646,8.639H70.567c0.38,1.484,0.585,3.039,0.585,4.641s-0.205,3.152-0.585,4.633h81.583
		c9.881,0,17.921-8.033,17.921-17.912C170.071,128.236,162.031,120.199,152.15,120.199z"/>
	<path fill="none" stroke="#F59229" stroke-width="2" d="M146.884,98.269c0,5.112,4.159,9.274,9.275,9.274
		c5.112,0,9.273-4.162,9.273-9.274c0-5.116-4.161-9.274-9.273-9.274C151.043,88.995,146.884,93.153,146.884,98.269z"/>
</g>
</svg>
